<mxfile host="app.diagrams.net" agent="Mozilla/5.0 (Windows NT 10.0; Win64; x64; rv:129.0) Gecko/20100101 Firefox/129.0" version="24.7.7">
  <diagram name="Page-1" id="OY2XilvTo5lEFc-ta-2N">
    <mxGraphModel dx="2074" dy="1114" grid="1" gridSize="10" guides="1" tooltips="1" connect="1" arrows="1" fold="1" page="1" pageScale="1" pageWidth="1654" pageHeight="1169" math="0" shadow="0">
      <root>
        <mxCell id="0" />
        <mxCell id="1" parent="0" />
        <mxCell id="5c0_GYeCpTK_YEpvNyqg-1" value="&lt;p style=&quot;line-height: 120%;&quot;&gt;PMIC&lt;/p&gt;" style="rounded=1;whiteSpace=wrap;html=1;fillColor=none;" vertex="1" parent="1">
          <mxGeometry x="517" y="337.5" width="310" height="80" as="geometry" />
        </mxCell>
        <mxCell id="5c0_GYeCpTK_YEpvNyqg-2" value="&lt;div&gt;Eye Hardware&lt;/div&gt;" style="rounded=1;whiteSpace=wrap;html=1;fillColor=none;dashed=1;dashPattern=12 12;spacingTop=-550;spacingRight=0;spacingLeft=400;fontColor=#000000;" vertex="1" parent="1">
          <mxGeometry x="500" y="210" width="730" height="507.5" as="geometry" />
        </mxCell>
        <mxCell id="5c0_GYeCpTK_YEpvNyqg-3" value="&lt;div&gt;Microcontroller&lt;br&gt;&lt;/div&gt;" style="rounded=1;whiteSpace=wrap;html=1;fontColor=#000000;" vertex="1" parent="1">
          <mxGeometry x="880" y="317.5" width="120" height="120" as="geometry" />
        </mxCell>
        <mxCell id="5c0_GYeCpTK_YEpvNyqg-4" style="edgeStyle=orthogonalEdgeStyle;rounded=0;orthogonalLoop=1;jettySize=auto;html=1;entryX=0.975;entryY=0.572;entryDx=0;entryDy=0;entryPerimeter=0;" edge="1" parent="1" source="5c0_GYeCpTK_YEpvNyqg-6" target="5c0_GYeCpTK_YEpvNyqg-3">
          <mxGeometry relative="1" as="geometry">
            <mxPoint x="1000" y="342.5000000000002" as="targetPoint" />
          </mxGeometry>
        </mxCell>
        <mxCell id="5c0_GYeCpTK_YEpvNyqg-5" value="SWD" style="edgeLabel;html=1;align=center;verticalAlign=middle;resizable=0;points=[];" vertex="1" connectable="0" parent="5c0_GYeCpTK_YEpvNyqg-4">
          <mxGeometry x="0.1293" y="2" relative="1" as="geometry">
            <mxPoint x="5" y="-22" as="offset" />
          </mxGeometry>
        </mxCell>
        <mxCell id="5c0_GYeCpTK_YEpvNyqg-6" value="Programming Connector" style="rounded=1;whiteSpace=wrap;html=1;" vertex="1" parent="1">
          <mxGeometry x="1090" y="356.5" width="120" height="60" as="geometry" />
        </mxCell>
        <mxCell id="5c0_GYeCpTK_YEpvNyqg-7" style="edgeStyle=orthogonalEdgeStyle;rounded=0;orthogonalLoop=1;jettySize=auto;html=1;" edge="1" parent="1" source="5c0_GYeCpTK_YEpvNyqg-8" target="5c0_GYeCpTK_YEpvNyqg-3">
          <mxGeometry relative="1" as="geometry" />
        </mxCell>
        <mxCell id="5c0_GYeCpTK_YEpvNyqg-8" value="Voltage Regulator" style="rounded=1;whiteSpace=wrap;html=1;" vertex="1" parent="1">
          <mxGeometry x="697" y="347.5" width="120" height="60" as="geometry" />
        </mxCell>
        <mxCell id="5c0_GYeCpTK_YEpvNyqg-9" style="edgeStyle=orthogonalEdgeStyle;rounded=0;orthogonalLoop=1;jettySize=auto;html=1;exitX=1;exitY=0.5;exitDx=0;exitDy=0;entryX=0.5;entryY=1;entryDx=0;entryDy=0;" edge="1" parent="1" source="5c0_GYeCpTK_YEpvNyqg-10" target="5c0_GYeCpTK_YEpvNyqg-8">
          <mxGeometry relative="1" as="geometry">
            <mxPoint x="687" y="582.5" as="sourcePoint" />
            <mxPoint x="717" y="437.5" as="targetPoint" />
            <Array as="points">
              <mxPoint x="757" y="467.5" />
            </Array>
          </mxGeometry>
        </mxCell>
        <mxCell id="5c0_GYeCpTK_YEpvNyqg-10" value="Battery" style="rounded=1;whiteSpace=wrap;html=1;" vertex="1" parent="1">
          <mxGeometry x="527" y="437.5" width="120" height="60" as="geometry" />
        </mxCell>
        <mxCell id="5c0_GYeCpTK_YEpvNyqg-11" style="edgeStyle=orthogonalEdgeStyle;rounded=0;orthogonalLoop=1;jettySize=auto;html=1;entryX=0.5;entryY=0;entryDx=0;entryDy=0;" edge="1" parent="1" source="5c0_GYeCpTK_YEpvNyqg-12" target="5c0_GYeCpTK_YEpvNyqg-10">
          <mxGeometry relative="1" as="geometry" />
        </mxCell>
        <mxCell id="5c0_GYeCpTK_YEpvNyqg-12" value="Battery Charger" style="rounded=1;whiteSpace=wrap;html=1;" vertex="1" parent="1">
          <mxGeometry x="527" y="347.5" width="120" height="60" as="geometry" />
        </mxCell>
        <mxCell id="5c0_GYeCpTK_YEpvNyqg-13" style="edgeStyle=orthogonalEdgeStyle;rounded=0;orthogonalLoop=1;jettySize=auto;html=1;" edge="1" parent="1" source="5c0_GYeCpTK_YEpvNyqg-14" target="5c0_GYeCpTK_YEpvNyqg-12">
          <mxGeometry relative="1" as="geometry" />
        </mxCell>
        <mxCell id="5c0_GYeCpTK_YEpvNyqg-14" value="Charger Connector / Port" style="rounded=1;whiteSpace=wrap;html=1;" vertex="1" parent="1">
          <mxGeometry x="527" y="237.5" width="120" height="60" as="geometry" />
        </mxCell>
        <mxCell id="5c0_GYeCpTK_YEpvNyqg-15" value="" style="points=[[0.005,0.09,0],[0.08,0,0],[0.76,0.25,0],[1,0.92,0],[0.91,0.995,0],[0.57,0.995,0],[0.045,0.955,0],[0.005,0.43,0]];verticalLabelPosition=bottom;sketch=0;html=1;verticalAlign=top;aspect=fixed;align=center;pointerEvents=1;shape=mxgraph.cisco19.3g_4g_indicator;fillColor=#005073;strokeColor=none;flipH=1;" vertex="1" parent="1">
          <mxGeometry x="827" y="267.5" width="50" height="50" as="geometry" />
        </mxCell>
        <mxCell id="5c0_GYeCpTK_YEpvNyqg-16" value="" style="html=1;strokeWidth=1;shadow=0;dashed=0;shape=mxgraph.ios7.misc.bluetooth;fillColor=#007AFF;strokeColor=none;buttonText=;strokeColor2=#222222;fontColor=#222222;fontSize=8;verticalLabelPosition=bottom;verticalAlign=top;align=center;sketch=0;" vertex="1" parent="1">
          <mxGeometry x="812" y="267.5" width="15" height="15" as="geometry" />
        </mxCell>
      </root>
    </mxGraphModel>
  </diagram>
</mxfile>
